<svg width="32" height="32" viewBox="0 0 32 32" fill="none" xmlns="http://www.w3.org/2000/svg">
<rect width="32" height="32" rx="8" fill="#3396BF"/>
<path d="M10.94 24.0933V14.7199C10.9405 13.3197 11.5047 12.0609 12.422 11.142C13.3408 10.2249 14.5996 9.66054 16 9.66C17.4002 9.66054 18.6591 10.2249 19.578 11.142C20.495 12.0609 21.0594 13.3197 21.06 14.7199V24.0933H23.04V14.7199C23.0405 12.7791 22.2505 11.0127 20.9779 9.74202C19.7072 8.46941 17.9409 7.67947 16 7.68C14.059 7.67947 12.2928 8.46941 11.0219 9.74202C9.74942 11.0127 8.95945 12.7791 8.95996 14.7199V24.0933H10.94Z" fill="#1B4E6B"/>
</svg>
